<?xml version="1.0" encoding="utf-8"?>
<svg version="1.1" id="Capa_1" x="0px" y="0px" width="510px" height="510px" viewBox="0 0 510 510" style="enable-background:new 0 0 510 510;" xmlns="http://www.w3.org/2000/svg">
  <path fill="white" id="watch" style="fill-opacity: 0.9;" d="M 255 0 C 114.75 0 0 114.75 0 255 C 0 395.25 114.75 510 255 510 C 395.25 510 510 395.25 510 255 C 510 114.75 395.25 0 255 0 Z M 255 459 C 142.8 459 51 367.2 51 255 C 51 142.8 142.8 51 255 51 C 367.2 51 459 142.8 459 255 C 459 367.2 367.2 459 255 459 Z"/>
  <polygon fill="white" id="watch-arrow" style="fill-opacity: 0.9;" points="267.75 127.5 229.5 127.5 229.5 280.5 362.1 362.1 382.5 328.95 267.75 260.1"/>
</svg>