<?xml version="1.0" encoding="utf-8"?>
<svg version="1.1" id="Capa_1" x="0px" y="0px" width="510px" height="510px" viewBox="0 0 510 510" style="enable-background:new 0 0 510 510;" xmlns="http://www.w3.org/2000/svg">
  <path d="M 153 408 C 124.95 408 102 430.95 102 459 C 102 487.05 124.95 510 153 510 C 181.05 510 204 487.05 204 459 C 204 430.95 181.05 408 153 408 Z M 0 0 L 0 51 L 51 51 L 142.8 244.8 L 107.1 306 C 104.55 313.65 102 323.85 102 331.5 C 102 359.55 124.95 382.5 153 382.5 L 459 382.5 L 459 331.5 L 163.2 331.5 C 160.65 331.5 158.1 328.95 158.1 326.4 L 158.1 323.849 L 181.05 280.499 L 369.75 280.499 C 390.15 280.499 504.9 89.25 504.9 89.25 C 510 84.15 510 81.6 510 76.5 C 510 61.2 499.8 51 484.5 51 L 107.1 51 L 84.15 0 L 0 0 Z M 408 408 C 379.95 408 357 430.95 357 459 C 357 487.05 379.95 510 408 510 C 436.05 510 459 487.05 459 459 C 459 430.95 436.05 408 408 408 Z" style="fill-rule: evenodd; fill: rgb(255, 255, 255);"/>
</svg>