<?xml version="1.0" encoding="utf-8"?>
<svg version="1.1" id="Capa_1" x="0px" y="0px" width="510px" height="510px" viewBox="0 0 510 510" style="enable-background:new 0 0 510 510;" xmlns="http://www.w3.org/2000/svg">
  <path fill="white" id="watch" style="opacity: 0.9;" d="M 267.75 12.75 C 178.5 12.75 99.45 61.2 58.65 135.15 L 0 76.5 L 0 242.25 L 165.75 242.25 L 94.35 170.85 C 127.5 107.1 191.25 63.75 267.75 63.75 C 372.3 63.75 459 150.45 459 255 C 459 359.55 372.3 446.25 267.75 446.25 C 183.6 446.25 114.75 392.7 86.7 318.75 L 33.15 318.75 C 61.2 420.75 155.55 497.25 267.75 497.25 C 402.9 497.25 510 387.6 510 255 C 510 122.4 400.35 12.75 267.75 12.75 Z M 229.5 140.25 L 229.5 270.3 L 349.35 341.7 L 369.75 308.55 L 267.75 247.35 L 267.75 140.25 L 229.5 140.25 Z"/>
</svg>