<?xml version="1.0" encoding="utf-8"?>
<svg version="1.1" id="Capa_1" x="0px" y="0px" width="535.5px" height="535.5px" viewBox="0 0 535.5 535.5" style="enable-background:new 0 0 535.5 535.5;" xmlns="http://www.w3.org/2000/svg">
  <path d="M 267.75 408 C 295.8 408 318.75 385.05 318.75 357 C 318.75 328.95 295.8 306 267.75 306 C 239.7 306 216.75 328.95 216.75 357 C 216.75 385.05 239.7 408 267.75 408 Z M 420.75 178.5 L 395.25 178.5 L 395.25 127.5 C 395.25 56.1 339.15 0 267.75 0 C 196.35 0 140.25 56.1 140.25 127.5 L 188.7 127.5 C 188.7 84.15 224.4 48.45 267.75 48.45 C 311.1 48.45 346.8 84.15 346.8 127.5 L 346.8 178.5 L 114.75 178.5 C 86.7 178.5 63.75 201.45 63.75 229.5 L 63.75 484.5 C 63.75 512.55 86.7 535.5 114.75 535.5 L 420.75 535.5 C 448.8 535.5 471.75 512.55 471.75 484.5 L 471.75 229.5 C 471.75 201.45 448.8 178.5 420.75 178.5 Z M 420.75 484.5 L 114.75 484.5 L 114.75 229.5 L 420.75 229.5 L 420.75 484.5 Z" style="fill: rgb(255, 255, 255);"/>
</svg>