<?xml version="1.0" encoding="utf-8"?>
<svg version="1.1" id="Capa_1" x="0px" y="0px" width="459px" height="459px" viewBox="0 0 459 459" style="enable-background:new 0 0 459 459;" xmlns="http://www.w3.org/2000/svg">
  <path fill="white" id="phone" d="M 91.8 198.9 C 127.5 270.3 188.7 328.95 260.1 367.2 L 316.2 311.1 C 323.849 303.451 334.05 300.901 341.7 306 C 369.75 316.2 400.349 321.3 433.5 321.3 C 448.8 321.3 459 331.5 459 346.8 L 459 433.5 C 459 448.8 448.8 459 433.5 459 C 193.8 459 0 265.2 0 25.5 C 0 10.2 10.2 0 25.5 0 L 114.75 0 C 130.05 0 140.25 10.2 140.25 25.5 C 140.25 56.1 145.35 86.7 155.55 117.3 C 158.1 124.95 155.55 135.15 150.45 142.8 L 91.8 198.9 Z" style=""/>
</svg>