<?xml version="1.0" encoding="utf-8"?>
<svg version="1.1" id="Capa_1" x="0px" y="0px" width="459px" height="459px" viewBox="0 0 459 459" style="enable-background:new 0 0 459 459;" xmlns="http://www.w3.org/2000/svg">
  <path d="M 181.05 321.3 L 216.75 357 L 344.25 229.5 L 216.75 102 L 181.05 137.7 L 247.35 204 L 0 204 L 0 255 L 247.35 255 L 181.05 321.3 Z M 408 0 L 51 0 C 22.95 0 0 22.95 0 51 L 0 153 L 51 153 L 51 51 L 408 51 L 408 408 L 51 408 L 51 306 L 0 306 L 0 408 C 0 436.05 22.95 459 51 459 L 408 459 C 436.05 459 459 436.05 459 408 L 459 51 C 459 22.95 436.05 0 408 0 Z" style="fill: rgb(255, 255, 255);"/>
</svg>