<?xml version="1.0" encoding="utf-8"?>
<svg version="1.1" overflow="visible" width="32" height="32" viewBox="0 0 25.600005 25.600001" id="svg2" style="fill-rule:evenodd;stroke-width:0.50099999;stroke-linejoin:bevel;overflow:visible" xmlns="http://www.w3.org/2000/svg" xmlns:xlink="http://www.w3.org/1999/xlink">
  <script id="script3301" xlink:href=""/>
  <script id="script3299" xlink:href=""/>
  <path id="path3424" d="M 0 23.262 L 0 2.338 C 0 1.049 1.047 0 2.338 0 L 23.262 0 C 24.552 0 25.6 1.049 25.6 2.338 L 25.6 23.262 C 25.6 24.552 24.552 25.6 23.262 25.6 L 2.338 25.6 C 1.047 25.6 0 24.552 0 23.262 Z M 24.8 23.262 L 24.8 2.338 C 24.8 1.491 24.109 0.8 23.262 0.8 L 2.338 0.8 C 1.49 0.8 0.8 1.491 0.8 2.338 L 0.8 23.262 C 0.8 24.11 1.49 24.8 2.338 24.8 L 23.262 24.8 C 24.109 24.8 24.8 24.11 24.8 23.262 Z" style="fill-opacity: 1; fill-rule: evenodd; stroke: none; fill: rgb(255, 255, 255);"/>
  <path id="path3426" d="M 3.201 19.604 L 3.201 6.001 C 3.201 5.781 3.38 5.601 3.601 5.601 L 4.798 5.602 L 20.797 5.601 L 20.797 5.602 L 22 5.602 C 22.22 5.602 22.4 5.782 22.4 6.002 L 22.4 19.602 C 22.4 19.823 22.22 20.003 22 20.003 L 5.905 20.003 C 5.903 20.004 5.901 20.004 5.899 20.004 L 3.601 20.004 C 3.38 20.004 3.201 19.824 3.201 19.604 Z M 19.299 19.602 L 19.299 18.503 L 15.199 14.402 L 15.097 14.31 L 13.084 16.357 C 12.927 16.517 12.67 16.517 12.514 16.357 L 10.5 14.311 L 10.4 14.402 L 6.299 18.503 L 6.299 19.604 C 6.299 19.613 6.298 19.622 6.298 19.63 L 19.299 19.63 C 19.299 19.622 19.299 19.612 19.299 19.602 Z M 5.5 19.203 L 5.5 9.528 C 5.5 9.308 5.679 9.128 5.899 9.128 L 6.36 9.128 C 6.467 9.128 6.569 9.171 6.645 9.248 L 12.799 15.507 L 18.953 9.248 C 19.029 9.171 19.131 9.128 19.239 9.128 L 19.699 9.128 C 19.919 9.128 20.099 9.308 20.099 9.528 L 20.099 19.202 L 21.6 19.202 L 21.6 6.402 L 19.406 6.402 L 13.084 12.833 C 12.927 12.993 12.67 12.993 12.514 12.833 L 6.192 6.402 L 5.896 6.402 L 4.001 6.401 L 4.001 19.203 L 5.5 19.203 Z M 6.299 17.732 L 6.4 17.602 L 10.099 13.903 L 6.299 10.038 L 6.299 17.732 Z M 19.299 17.732 L 19.299 10.036 L 15.498 13.901 L 19.199 17.602 L 19.299 17.732 Z M 12.799 11.982 L 18.705 5.973 L 6.891 5.973 L 12.799 11.982 Z" style="fill-opacity: 1; fill-rule: evenodd; stroke: none; fill: rgb(255, 255, 255);"/>
</svg>