<?xml version="1.0" encoding="utf-8"?>
<svg version="1.1" overflow="visible" width="32" height="32" viewBox="0 0 25.600005 25.600001" id="svg2" style="fill-rule:evenodd;stroke-width:0.50099999;stroke-linejoin:bevel;overflow:visible" xmlns="http://www.w3.org/2000/svg" xmlns:xlink="http://www.w3.org/1999/xlink">
  <script id="script3301" xlink:href=""/>
  <script id="script3299" xlink:href=""/>
  <path id="path3176" d="M 11.922 25.079 L 11.922 15.15 L 10.121 15.15 C 9.9 15.15 9.721 14.97 9.721 14.75 L 9.721 11.776 C 9.721 11.513 9.921 11.382 10.121 11.381 L 11.923 11.38 L 11.923 9.779 C 11.923 8.936 11.932 7.419 12.723 6.451 C 13.521 5.465 14.626 4.804 16.451 4.804 C 19.262 4.804 20.474 5.179 20.518 5.193 C 20.708 5.254 20.826 5.448 20.791 5.646 L 20.24 8.69 C 20.198 8.921 19.968 9.067 19.742 9.006 C 19.745 9.006 18.871 8.771 18.072 8.771 C 17.585 8.771 16.847 8.876 16.847 9.456 L 16.847 11.376 L 19.959 11.376 C 20.192 11.376 20.376 11.577 20.356 11.809 L 20.113 14.783 C 20.096 14.991 19.923 15.15 19.715 15.15 L 16.847 15.15 L 16.847 25.079 C 16.847 25.3 16.667 25.479 16.447 25.479 L 12.322 25.479 C 12.101 25.479 11.922 25.3 11.922 25.079 Z M 16.047 24.679 L 16.047 14.75 C 16.047 14.53 16.227 14.35 16.447 14.35 L 19.346 14.35 L 19.525 12.176 L 16.447 12.176 C 16.227 12.176 16.047 11.997 16.047 11.776 L 16.047 9.456 C 16.047 8.898 16.33 8.501 16.74 8.267 C 17.125 8.047 17.61 7.971 18.072 7.971 C 18.528 7.971 18.997 8.037 19.352 8.102 L 19.526 8.136 L 19.934 5.876 L 19.806 5.851 C 19.246 5.747 18.162 5.604 16.451 5.604 C 14.868 5.604 13.991 6.155 13.342 6.956 C 12.763 7.665 12.723 8.868 12.723 9.779 L 12.723 11.78 C 12.723 12 12.542 12.18 12.323 12.18 L 10.521 12.18 L 10.521 14.35 L 12.322 14.35 C 12.541 14.35 12.722 14.53 12.722 14.75 L 12.722 24.679 L 16.047 24.679 Z" style="fill-opacity: 1; fill-rule: evenodd; stroke: none; fill: rgb(255, 255, 255);"/>
  <path id="path3178" d="M 0 23.262 L 0 2.338 C 0 1.049 1.047 0 2.338 0 L 23.262 0 C 24.552 0 25.6 1.049 25.6 2.338 L 25.6 23.262 C 25.6 24.552 24.552 25.6 23.262 25.6 L 2.338 25.6 C 1.047 25.6 0 24.552 0 23.262 Z M 24.8 23.262 L 24.8 2.338 C 24.8 1.491 24.109 0.8 23.262 0.8 L 2.338 0.8 C 1.49 0.8 0.8 1.491 0.8 2.338 L 0.8 23.262 C 0.8 24.11 1.49 24.8 2.338 24.8 L 23.262 24.8 C 24.109 24.8 24.8 24.11 24.8 23.262 Z" style="fill-opacity: 1; fill-rule: evenodd; stroke: none; fill: rgb(255, 255, 255);"/>
</svg>