<?xml version="1.0" encoding="utf-8"?>
<svg version="1.1" overflow="visible" width="32" height="32" viewBox="0 0 25.600005 25.600001" id="svg2" style="fill-rule:evenodd;stroke-width:0.50099999;stroke-linejoin:bevel;overflow:visible" xmlns="http://www.w3.org/2000/svg" xmlns:xlink="http://www.w3.org/1999/xlink">
  <script id="script3301" xlink:href=""/>
  <script id="script3299" xlink:href=""/>
  <path id="path3358" d="M 0 23.174 L 0 2.251 C 0 0.961 1.047 -0.087 2.338 -0.087 L 23.262 -0.087 C 24.552 -0.087 25.6 0.961 25.6 2.251 L 25.6 23.174 C 25.6 24.465 24.552 25.513 23.262 25.513 L 2.338 25.513 C 1.047 25.513 0 24.465 0 23.174 Z M 24.8 23.174 L 24.8 2.251 C 24.8 1.404 24.109 0.713 23.262 0.713 L 2.338 0.713 C 1.49 0.713 0.8 1.404 0.8 2.251 L 0.8 23.174 C 0.8 24.022 1.49 24.713 2.338 24.713 L 23.262 24.713 C 24.109 24.713 24.8 24.022 24.8 23.174 Z" style="fill-opacity: 1; fill-rule: evenodd; stroke: none; fill: rgb(255, 255, 255);"/>
  <path id="path3360" d="M 4.001 18.431 L 4.001 6.992 C 4.001 5.291 5.382 3.908 7.085 3.908 L 18.526 3.908 C 20.227 3.908 21.61 5.291 21.61 6.992 L 21.61 18.431 C 21.61 20.134 20.227 21.515 18.526 21.515 L 7.085 21.515 C 5.382 21.515 4.001 20.134 4.001 18.431 Z M 20.81 18.431 L 20.81 6.992 C 20.81 5.733 19.785 4.708 18.526 4.708 L 7.085 4.708 C 7.034 4.708 6.984 4.71 6.935 4.713 L 7.201 4.713 L 7.201 9.513 L 6.4 9.513 L 6.399 4.814 C 5.473 5.105 4.801 5.972 4.801 6.992 L 4.801 9.514 L 20.799 9.514 L 20.799 10.313 L 4.801 10.313 L 4.801 18.431 C 4.801 19.691 5.825 20.715 7.085 20.715 L 18.526 20.715 C 19.785 20.715 20.81 19.691 20.81 18.431 Z M 8.798 15.116 C 8.798 12.907 10.592 11.114 12.801 11.114 C 15.008 11.114 16.804 12.907 16.804 15.116 C 16.804 17.325 15.008 19.117 12.801 19.117 C 10.592 19.117 8.798 17.325 8.798 15.116 Z M 16.004 15.116 C 16.004 13.35 14.568 11.914 12.801 11.914 C 11.032 11.914 9.597 13.35 9.597 15.116 C 9.597 16.882 11.032 18.317 12.801 18.317 C 14.568 18.317 16.004 16.882 16.004 15.116 Z M 10.407 15.111 C 10.407 13.791 11.479 12.717 12.801 12.717 C 14.121 12.717 15.194 13.791 15.194 15.111 C 15.194 16.433 14.121 17.506 12.801 17.506 C 11.479 17.506 10.407 16.433 10.407 15.111 Z M 14.394 15.111 C 14.394 14.231 13.678 13.517 12.801 13.517 C 11.922 13.517 11.207 14.231 11.207 15.111 C 11.207 15.993 11.922 16.706 12.801 16.706 C 13.678 16.706 14.394 15.993 14.394 15.111 Z M 8.001 9.513 L 8.001 4.713 L 8.802 4.713 L 8.802 9.513 L 8.001 9.513 Z M 9.6 9.513 L 9.6 4.713 L 10.401 4.713 L 10.401 9.513 L 9.6 9.513 Z M 16.005 7.115 C 16.005 6.234 16.715 5.509 17.598 5.509 C 18.48 5.509 19.192 6.234 19.192 7.115 C 19.192 7.997 18.48 8.72 17.598 8.72 C 16.715 8.72 16.005 7.997 16.005 7.115 Z M 18.392 7.115 C 18.392 6.668 18.031 6.309 17.598 6.309 C 17.164 6.309 16.805 6.668 16.805 7.115 C 16.805 7.563 17.164 7.92 17.598 7.92 C 18.031 7.92 18.392 7.563 18.392 7.115 Z" style="fill-opacity: 1; fill-rule: evenodd; stroke: none; fill: rgb(255, 255, 255);"/>
</svg>