<?xml version="1.0" encoding="utf-8"?>
<svg version="1.1" id="Capa_1" x="0px" y="0px" width="535.5px" height="535.5px" viewBox="0 0 535.5 535.5" style="enable-background:new 0 0 535.5 535.5;" xmlns="http://www.w3.org/2000/svg">
  <path fill="white" id="bell" d="M 142.8 53.55 L 107.1 17.85 C 45.9 63.75 5.1 135.15 0 216.75 L 51 216.75 C 56.1 147.9 89.25 89.25 142.8 53.55 Z M 484.5 216.75 L 535.5 216.75 C 530.4 135.15 492.15 63.75 430.95 17.85 L 395.25 53.55 C 446.25 89.25 479.4 147.9 484.5 216.75 Z M 433.5 229.5 C 433.5 150.45 379.95 86.7 306 68.85 L 306 51 C 306 30.6 288.15 12.75 267.75 12.75 C 247.35 12.75 229.5 30.6 229.5 51 L 229.5 68.85 C 155.55 86.7 102 150.45 102 229.5 L 102 369.75 L 51 420.75 L 51 446.25 L 484.5 446.25 L 484.5 420.75 L 433.5 369.75 L 433.5 229.5 Z M 267.75 522.75 C 270.3 522.75 275.4 522.75 277.95 522.75 C 295.8 520.2 308.55 507.45 313.65 492.15 C 316.2 487.049 318.75 479.4 318.75 471.75 L 216.75 471.75 C 216.75 499.8 239.7 522.75 267.75 522.75 Z" style=""/>
</svg>