<?xml version="1.0" encoding="utf-8"?>
<svg version="1.1" overflow="visible" width="32" height="32" viewBox="0 0 25.600005 25.600001" id="svg2" style="fill-rule:evenodd;stroke-width:0.50099999;stroke-linejoin:bevel;overflow:visible" xmlns="http://www.w3.org/2000/svg" xmlns:xlink="http://www.w3.org/1999/xlink">
  <script id="script3301" xlink:href=""/>
  <script id="script3299" xlink:href=""/>
  <path id="path3142" d="M 0 23.323 L 0 2.277 C 0 1.021 1.02 0 2.277 0 L 23.323 0 C 24.579 0 25.6 1.021 25.6 2.277 L 25.6 23.323 C 25.6 24.58 24.579 25.6 23.323 25.6 L 2.277 25.6 C 1.02 25.6 0 24.58 0 23.323 Z M 24.8 23.323 L 24.8 2.277 C 24.8 1.463 24.137 0.8 23.323 0.8 L 2.277 0.8 C 1.462 0.8 0.8 1.463 0.8 2.277 L 0.8 23.323 C 0.8 24.138 1.462 24.8 2.277 24.8 L 23.323 24.8 C 24.137 24.8 24.8 24.138 24.8 23.323 Z" style="fill-opacity: 1; fill-rule: evenodd; stroke: none; fill: rgb(255, 255, 255);"/>
  <path id="path3144" d="M 6.401 21.191 L 6.431 4.402 C 6.431 4.296 6.472 4.194 6.547 4.119 C 6.624 4.044 6.725 4.001 6.832 4.001 L 14.102 4.001 C 16.623 4.001 18.931 5.341 18.927 8.116 C 18.926 9.802 18.465 10.742 17.577 11.514 L 17.173 11.829 L 17.464 11.939 C 17.58 11.986 17.688 12.031 17.773 12.075 C 18.28 12.337 18.582 12.606 18.898 12.946 C 19.837 13.944 19.999 14.88 19.999 16.32 C 19.999 19.888 16.709 21.591 13.732 21.591 L 6.801 21.591 C 6.579 21.591 6.4 21.411 6.401 21.191 Z M 19.199 16.32 C 19.199 14.967 19.051 14.276 18.315 13.493 C 18.039 13.196 17.807 12.993 17.407 12.787 C 17.186 12.673 16.39 12.415 16.14 12.263 L 16.106 12.239 C 15.871 12.075 15.881 11.722 16.125 11.572 C 17.505 10.716 18.127 10.026 18.128 8.115 C 18.13 5.933 16.379 4.801 14.102 4.801 L 7.229 4.801 L 7.201 20.791 L 13.732 20.791 C 16.513 20.791 19.199 19.234 19.199 16.32 Z M 10.782 18.497 C 10.561 18.497 10.381 18.318 10.383 18.097 L 10.384 13.92 C 10.384 13.7 10.563 13.521 10.784 13.521 C 11.731 13.521 12.995 13.403 13.962 13.62 C 15.03 13.86 15.839 14.528 15.812 16.016 C 15.786 17.452 14.982 18.108 13.944 18.359 C 12.986 18.59 11.753 18.497 10.782 18.497 Z M 13.756 17.581 C 14.503 17.401 14.995 17.016 15.013 16.003 C 15.032 14.951 14.546 14.571 13.787 14.4 C 13.361 14.306 12.879 14.285 12.37 14.29 L 11.181 14.313 L 11.181 17.703 L 10.782 17.697 C 11.862 17.697 12.922 17.783 13.756 17.581 Z M 10.782 11.39 C 10.562 11.39 10.383 11.211 10.383 10.99 L 10.383 8.811 L 10.381 7.475 C 10.38 7.254 10.56 7.074 10.781 7.074 C 11.541 7.074 12.542 6.99 13.305 7.169 C 14.167 7.37 14.815 7.928 14.815 9.12 C 14.815 10.348 14.275 10.981 13.415 11.238 C 12.667 11.461 11.661 11.39 10.782 11.39 Z M 13.186 10.471 C 13.674 10.325 14.015 10.025 14.015 9.12 C 14.015 8.347 13.672 8.076 13.123 7.947 C 12.639 7.835 12.06 7.85 11.429 7.864 L 11.18 7.868 L 11.182 8.81 L 11.181 10.595 L 10.782 10.59 C 11.774 10.59 12.585 10.65 13.186 10.471 Z" style="fill-opacity: 1; fill-rule: evenodd; stroke: none; fill: rgb(255, 255, 255);"/>
</svg>